<?xml version="1.0" encoding="UTF-8"?><svg id="Layer_1" xmlns="http://www.w3.org/2000/svg" width="1457.1" height="255.25" viewBox="0 0 1457.1 255.25"><defs><style>.cls-1{fill:#7d8f54;stroke:#5b604b;}.cls-1,.cls-2{stroke-miterlimit:10;stroke-width:5px;}.cls-2{fill:#5b604b;stroke:#828c5d;}</style></defs><path class="cls-1" d="m31.8,165.81L9.41,80.79c-1.98-7.45,1.61-12.01,9.22-12.01h14.78c6.46,0,10.42,3.15,11.7,9.74l12.17,62.47c.55,3.08.93,6.67,1.46,9.9.32,1.95,1.18,3.01,2.47,3.01s1.91-1.03,2.24-3.17c.49-3.08,1.18-6.59,1.79-9.57l12.01-62.8c1.29-6.47,5.31-9.57,11.77-9.57h14.78c7.62,0,11.25,4.63,9.31,12.01l-22.23,85.02c-2.64,10.08-8.96,14.93-19.35,14.93h-20.44c-10.4,0-16.63-4.8-19.27-14.93Z"/><path class="cls-1" d="m123.44,76.89c0-9.57,6.65-15.58,17.2-15.58s17.2,6,17.2,15.58-6.65,15.58-17.2,15.58-17.2-6-17.2-15.58Zm0,93.3v-60.04c0-6.81,3.73-10.55,10.55-10.55h12.82c6.81,0,10.55,3.73,10.55,10.55v60.04c0,6.81-3.73,10.55-10.55,10.55h-12.82c-6.81,0-10.55-3.73-10.55-10.55Z"/><path class="cls-1" d="m169.69,139.2c0-26.45,7.95-41.86,30.67-41.86,8.92,0,17.2,1.14,23.53,2.92,1.79.49,2.27-.81,1.79-3.25-.97-3.89-1.46-8.11-1.3-12.17l.16-7.14c.16-6.98,3.73-10.55,10.71-10.55h12.98c6.81,0,10.55,3.73,10.55,10.55v89.24c0,6-2.43,10.38-8.44,11.85-11.36,2.76-27.91,3.89-37,3.89-37,0-43.65-21.58-43.65-43.49Zm51.27,20.44c2.43-.32,3.73-1.46,3.73-3.57v-31.32c0-1.95-.97-3.25-3.08-3.41-1.95-.16-4.22-.16-6.98-.16-7.79,0-9.9,3.08-9.9,18.17,0,16.55,2.27,19.96,9.25,20.45,1.79.16,4.22,0,6.98-.16Z"/><path class="cls-1" d="m269.64,140.82c0-31.97,12.49-43.49,46.08-43.49,30.5,0,42.03,9.9,42.19,28.88.16,15.09-7.63,21.42-31.48,21.42h-16.55c-2.76,0-3.41.65-2.92,3.08.81,4.22,5.52,5.84,12.66,5.84,4.87,0,14.12-.65,23.69-1.3,6.81-.49,10.87,2.6,11.85,9.25,1.14,7.63-.65,11.68-6.98,13.79-9.57,2.92-21.26,4.38-32.29,4.38-33.91,0-46.24-14.28-46.24-41.86Zm47.22-9.25c6.81,0,8.44-1.46,8.44-6.17,0-5.19-2.76-6-8.6-6.17-7.95-.16-11.03,1.95-11.03,8.76,0,2.76.65,3.57,3.08,3.57h8.11Z"/><path class="cls-1" d="m365.53,140.34c0-31.64,12.17-43,45.43-43s45.27,11.36,45.27,43-12.17,42.35-45.27,42.35-45.43-11.2-45.43-42.35Zm55.01,0c0-16.71-1.79-19.96-9.57-19.96s-9.74,3.25-9.74,19.96,1.79,19.31,9.74,19.31,9.57-3.08,9.57-19.31Z"/><path class="cls-1" d="m475.87,180.58c-6.82-.81-10.06-4.87-9.25-11.36.65-6.49,4.38-9.9,11.03-9.9h18.82c15.42,0,17.52,0,17.52-2.43,0-1.95-2.11-1.95-10.55-4.38l-17.85-4.87c-17.85-5.19-21.26-13.95-21.26-26.61,0-14.36,9.09-23.04,37.64-23.04,9.41,0,21.58.54,31.48,1.3,6.65.81,9.74,5.03,9.09,11.52-.81,6.49-4.54,9.9-11.03,9.9h-22.07c-10.87,0-12.17-.16-12.17,1.95,0,1.79,1.79,1.79,9.57,3.89l18.66,4.71c14.44,4.06,21.42,10.38,21.42,24.5,0,20.11-11.03,26.12-39.27,26.12-6.17,0-18.17-.11-31.8-1.3Z"/><path class="cls-1" d="m557.81,76.89c0-9.57,6.65-15.58,17.2-15.58s17.2,6,17.2,15.58-6.65,15.58-17.2,15.58-17.2-6-17.2-15.58Zm0,93.3v-60.04c0-6.81,3.73-10.55,10.55-10.55h12.82c6.81,0,10.55,3.73,10.55,10.55v60.04c0,6.81-3.73,10.55-10.55,10.55h-12.82c-6.81,0-10.55-3.73-10.55-10.55Z"/><path class="cls-1" d="m614.43,160.29v-37c0-2.11-1.14-3.25-3.25-3.25h-.49c-6.49-.16-10.06-3.57-10.06-9.9s3.57-9.9,10.22-10.22h.32c2.11-.16,3.08-1.3,3.08-3.41v-7.63c0-6.81,3.73-10.55,10.55-10.55h13.14c6.82,0,10.55,3.73,10.55,10.55v7.46c0,2.11,1.14,3.25,3.25,3.25h5.84c6.82,0,10.55,3.57,10.55,10.22s-3.73,10.22-10.55,10.22h-5.84c-2.11,0-3.25,1.14-3.25,3.25v27.91c0,4.22,1.46,5.84,5.35,5.84h.65c8.6.32,11.36,5.35,11.52,12.01.16,6.49-2.43,11.36-8.92,12.49-6.33,1.14-12.01,1.46-16.88,1.46-15.74,0-25.8-8.44-25.8-22.72Z"/><path class="cls-1" d="m674.14,140.82c0-31.97,12.49-43.49,46.08-43.49,30.51,0,42.03,9.9,42.19,28.88.16,15.09-7.63,21.42-31.48,21.42h-16.55c-2.76,0-3.41.65-2.92,3.08.81,4.22,5.52,5.84,12.66,5.84,4.87,0,14.12-.65,23.69-1.3,6.81-.49,10.87,2.6,11.84,9.25,1.14,7.63-.65,11.68-6.98,13.79-9.57,2.92-21.26,4.38-32.29,4.38-33.91,0-46.24-14.28-46.24-41.86Zm47.22-9.25c6.82,0,8.44-1.46,8.44-6.17,0-5.19-2.76-6-8.6-6.17-7.95-.16-11.03,1.95-11.03,8.76,0,2.76.65,3.57,3.08,3.57h8.11Z"/><path class="cls-2" d="m805.41,124.76c0-44.46,12.33-58.25,47.87-58.25s48.03,13.79,48.03,58.25-12.33,58.25-48.03,58.25-47.87-13.79-47.87-58.25Zm61.01,0c0-28.88-2.6-32.13-13.31-32.13s-12.82,3.25-12.82,32.13,2.6,32.13,12.82,32.13,13.31-3.25,13.31-32.13Z"/><path class="cls-2" d="m921.26,180.9c-6.82-.65-10.06-4.87-9.41-11.68l.65-5.52c.81-6.65,4.71-9.9,11.36-9.57,7.14.32,13.63.49,19.15.49,12.98,0,16.06-2.6,16.71-10.06.65-7.63-3.73-10.22-14.93-11.03l-20.45-2.6c-5.84-.81-9.9-5.35-9.57-11.03l2.43-40.89c.49-6.65,4.22-10.22,10.87-10.22h52.25c6.98,0,10.71,3.89,10.38,10.71l-.16,4.22c-.33,6.65-4.06,10.22-10.87,10.22h-31.8c-2.6,0-3.89,1.3-4.06,3.89l-.33,4.71c-.16,1.95.97,3.25,2.92,3.57l17.36,2.27c25.31,3.41,30.83,21.26,30.83,37.48,0,20.93-10.06,36.83-42.35,36.83-9.09,0-19.8-.65-30.99-1.79Z"/><path class="cls-2" d="m1003.2,165.97c0-9.09,7.63-16.71,16.71-16.71s16.71,7.63,16.71,16.71-7.63,16.71-16.71,16.71-16.71-7.63-16.71-16.71Z"/><path class="cls-2" d="m1046.52,124.76c0-44.46,12.33-58.25,47.87-58.25s48.03,13.79,48.03,58.25-12.33,58.25-48.03,58.25-47.87-13.79-47.87-58.25Zm61.01,0c0-28.88-2.6-32.13-13.31-32.13s-12.82,3.25-12.82,32.13,2.6,32.13,12.82,32.13,13.31-3.25,13.31-32.13Z"/><path class="cls-2" d="m1176.81,170.19v-59.55c0-3.57.16-6.98.65-10.55.33-2.27-.97-3.57-3.25-3.08l-11.52,2.27c-6.81,1.3-11.03-1.62-12.33-8.44l-.32-1.62c-1.14-6.33,1.3-10.71,7.3-12.98l13.31-5.03c4.54-1.78,7.95-2.43,12.82-2.43h17.85c6.82,0,10.55,3.73,10.55,10.55v90.87c0,6.81-3.73,10.55-10.55,10.55h-13.95c-6.82,0-10.55-3.73-10.55-10.55Z"/><path class="cls-2" d="m1227.76,165.97c0-9.09,7.63-16.71,16.71-16.71s16.71,7.63,16.71,16.71-7.63,16.71-16.71,16.71-16.71-7.63-16.71-16.71Z"/><path class="cls-2" d="m1271.08,124.76c0-44.46,12.33-58.25,47.87-58.25s48.03,13.79,48.03,58.25-12.33,58.25-48.03,58.25-47.87-13.79-47.87-58.25Zm61.01,0c0-28.88-2.6-32.13-13.31-32.13s-12.82,3.25-12.82,32.13,2.6,32.13,12.82,32.13,13.31-3.25,13.31-32.13Z"/><path class="cls-2" d="m1401.38,170.19v-59.55c0-3.57.16-6.98.65-10.55.33-2.27-.97-3.57-3.25-3.08l-11.52,2.27c-6.81,1.3-11.03-1.62-12.33-8.44l-.32-1.62c-1.14-6.33,1.3-10.71,7.3-12.98l13.31-5.03c4.54-1.78,7.95-2.43,12.82-2.43h17.85c6.82,0,10.55,3.73,10.55,10.55v90.87c0,6.81-3.73,10.55-10.55,10.55h-13.95c-6.82,0-10.55-3.73-10.55-10.55Z"/></svg>